<svg xmlns="http://www.w3.org/2000/svg" viewBox="0 0 70 73">
  <defs>
    <style>
      .cls-1 {
        opacity: 0.9;
      }

      .cls-2 {
        fill: #ffe781;
      }

      .cls-3 {
        fill: #988ecd;
      }

      .cls-4 {
        fill: #f8f8f8;
      }

      .cls-5 {
        fill: #f3f8f8;
      }

      .cls-6 {
        fill: #413d4a;
      }
    </style>
  </defs>
  <g id="Icon" class="cls-1" transform="translate(107.2) rotate(90)">
    <path id="Path_285" data-name="Path 285" class="cls-2" d="M381.38,311.65V320.9a4.735,4.735,0,0,1-4.723,4.744h-3.934A4.735,4.735,0,0,1,368,320.9v-4.5h8.657A4.726,4.726,0,0,0,381.38,311.65Z" transform="translate(-313.168 -219.925)"/>
    <path id="Path_286" data-name="Path 286" class="cls-3" d="M76.807,199.669v1.182a4.735,4.735,0,0,1-4.723,4.744H14.823a4.735,4.735,0,0,1-4.723-4.744V189.058a7.1,7.1,0,0,1,2.5-5.418l2.458-2.29H72.8v.075l1.788,1.931a7.14,7.14,0,0,1,2.22,5.163v11.15Zm-6.914-1.586v-7.738H58.644v7.738Zm-41.616,0v-7.738H17.028v7.738Z" transform="translate(-8.595 -109.126)"/>
    <g id="Group_55" data-name="Group 55" transform="translate(1.505 54.518)">
      <path id="Path_287" data-name="Path 287" class="cls-4" d="M95.758,66.133l5.394,14.607h-7a8.731,8.731,0,1,0-17.463,0H43.4l5.394-14.607a4.708,4.708,0,0,1,4.425-3.083H91.333A4.737,4.737,0,0,1,95.758,66.133Z" transform="translate(-38.438 -63.05)"/>
      <rect id="Rectangle_119" data-name="Rectangle 119" class="cls-2" width="11.249" height="7.738" transform="translate(48.544 26.7)"/>
      <path id="Path_288" data-name="Path 288" class="cls-5" d="M284.163,131.42H266.7a8.731,8.731,0,1,1,17.463,0Z" transform="translate(-228.467 -113.73)"/>
      <rect id="Rectangle_120" data-name="Rectangle 120" class="cls-2" width="11.249" height="7.738" transform="translate(6.928 26.7)"/>
      <path id="Path_289" data-name="Path 289" class="cls-2" d="M23.48,316.469v4.43a4.735,4.735,0,0,1-4.723,4.744H14.823A4.735,4.735,0,0,1,10.1,320.9V311.65a4.735,4.735,0,0,0,4.723,4.744H23.48Z" transform="translate(-10.1 -274.443)"/>
    </g>
    <path id="Path_290" data-name="Path 290" class="cls-6" d="M65.545,71.479,60.211,57.021a6.222,6.222,0,0,0-5.826-4.071h-38.1a6.236,6.236,0,0,0-5.826,4.071L5.2,71.284,3.01,73.319A8.646,8.646,0,0,0,0,79.875v21.043a6.242,6.242,0,0,0,6.228,6.226h3.934a6.233,6.233,0,0,0,6.228-6.226V97.865H53.342v3.053a6.233,6.233,0,0,0,6.228,6.226H63.5a6.233,6.233,0,0,0,6.228-6.226v-21.6a8.671,8.671,0,0,0-2.667-6.226ZM13.261,58.054a3.208,3.208,0,0,1,3.025-2.1H54.4a3.23,3.23,0,0,1,3.025,2.1l4.649,12.572H58.587a10.22,10.22,0,0,0-20.234,0H8.612Zm42.3,12.572H41.392a7.233,7.233,0,0,1,14.17,0ZM13.41,100.918a3.238,3.238,0,0,1-3.248,3.233H6.228a3.257,3.257,0,0,1-3.248-3.233V97a6.031,6.031,0,0,0,3.248.868H13.41ZM63.5,104.15H59.57a3.247,3.247,0,0,1-3.248-3.233V97.865H63.5A6.031,6.031,0,0,0,66.752,97v3.921A3.257,3.257,0,0,1,63.5,104.15Zm0-9.279H6.228a3.222,3.222,0,0,1-3.248-3.2V79.875a5.629,5.629,0,0,1,1.982-4.28l.06-.06,2.041-1.916H63.489l1.43,1.542a.352.352,0,0,0,.075.075,5.627,5.627,0,0,1,1.758,4.086V91.668A3.222,3.222,0,0,1,63.5,94.871Z" transform="translate(0 0.057)"/>
    <path id="Path_291" data-name="Path 291" class="cls-6" d="M61.155,232.547a1.5,1.5,0,0,0-1.49-1.5H48.49a1.5,1.5,0,0,0-1.49,1.5v7.783a1.5,1.5,0,0,0,1.49,1.5H59.665a1.5,1.5,0,0,0,1.49-1.5Zm-2.98,6.286H49.98v-4.789h8.195Z" transform="translate(-39.997 -151.388)"/>
    <path id="Path_292" data-name="Path 292" class="cls-6" d="M340.155,232.547a1.5,1.5,0,0,0-1.49-1.5H327.49a1.5,1.5,0,0,0-1.49,1.5v7.783a1.5,1.5,0,0,0,1.49,1.5h11.175a1.5,1.5,0,0,0,1.49-1.5Zm-2.98,6.286h-8.2v-4.789h8.2Z" transform="translate(-277.426 -151.388)"/>
    <path id="Path_293" data-name="Path 293" class="cls-6" d="M191.583,273.05H177.19a1.5,1.5,0,0,0,0,2.993h14.393a1.5,1.5,0,0,0,0-2.993Z" transform="translate(-149.521 -187.102)"/>
    <path id="Path_294" data-name="Path 294" class="cls-6" d="M191.583,242.05H177.19a1.5,1.5,0,0,0,0,2.993h14.393a1.5,1.5,0,0,0,0-2.993Z" transform="translate(-149.521 -160.742)"/>
    <path id="Path_295" data-name="Path 295" class="cls-6" d="M1.689,5.258a1.765,1.765,0,0,0,.392-.044l8.887-2.023a1.615,1.615,0,0,0,1.253-1.947,1.693,1.693,0,0,0-2.035-1.2L1.3,2.067A1.616,1.616,0,0,0,.046,4.014,1.677,1.677,0,0,0,1.689,5.258Z" transform="translate(51.853 49.467) rotate(-90)"/>
    <path id="Path_296" data-name="Path 296" class="cls-6" d="M1.051,3.115l8,3.13a1.752,1.752,0,0,0,.638.121,1.692,1.692,0,0,0,1.565-1.006,1.594,1.594,0,0,0-.925-2.109l-8-3.13a1.715,1.715,0,0,0-2.2.885A1.594,1.594,0,0,0,1.051,3.115Z" transform="translate(58.835 50.541) rotate(-90)"/>
    <path id="Path_297" data-name="Path 297" class="cls-6" d="M4.673,9.317a1.707,1.707,0,0,0,1.439.768A1.742,1.742,0,0,0,7,9.843a1.578,1.578,0,0,0,.55-2.225L3.127.768A1.734,1.734,0,0,0,.8.242a1.578,1.578,0,0,0-.55,2.225Z" transform="translate(62.916 53.395) rotate(-90)"/>
  </g>
</svg>
